<svg width="120" height="120" viewBox="0 0 120 120" fill="none" xmlns="http://www.w3.org/2000/svg">
<path d="M97.5726 36.0645L87.3916 46.362C87.2739 46.4724 87.1193 46.5337 86.9589 46.5337C86.7984 46.5337 86.6439 46.4724 86.5262 46.362L75.8997 35.6139C75.0823 34.7853 74.1113 34.128 73.0423 33.6794C71.9734 33.2309 70.8274 33 69.6701 33C68.5129 33 67.367 33.2309 66.298 33.6794C65.2291 34.128 64.2581 34.7853 63.4407 35.6139L52.9351 46.2333C52.8793 46.2914 52.8126 46.3377 52.7388 46.3693C52.665 46.4009 52.5857 46.4172 52.5056 46.4172C52.4254 46.4172 52.3462 46.4009 52.2724 46.3693C52.1986 46.3377 52.1318 46.2914 52.0761 46.2333L41.895 35.9357C40.24 34.2701 38.0002 33.3351 35.6655 33.3351C33.3308 33.3351 31.091 34.2701 29.4359 35.9357L16.2006 49.3225C15.4319 50.1001 15 51.1545 15 52.2541C15 53.3536 15.4319 54.4082 16.2006 55.1857C16.9693 55.9632 18.0119 56.4 19.099 56.4C20.1861 56.4 21.2287 55.9632 21.9974 55.1857L35.2328 41.7989C35.2823 41.7297 35.3474 41.6735 35.4226 41.6347C35.4978 41.5959 35.5811 41.5757 35.6655 41.5757C35.7499 41.5757 35.8332 41.5959 35.9084 41.6347C35.9836 41.6735 36.0487 41.7297 36.0982 41.7989L46.2793 52.0964C47.9316 53.7648 50.1708 54.7018 52.5056 54.7018C54.8403 54.7018 57.0796 53.7648 58.7319 52.0964L69.2375 41.4771C69.3552 41.3667 69.5097 41.3054 69.6701 41.3054C69.8306 41.3054 69.9852 41.3667 70.1029 41.4771L80.7293 52.2252C82.3827 53.8939 84.6231 54.8311 86.9589 54.8311C89.2946 54.8311 91.535 53.8939 93.1884 52.2252L103.369 41.9276C104.138 41.1501 104.57 40.0956 104.57 38.996C104.57 37.8965 104.138 36.842 103.369 36.0645C102.601 35.287 101.558 34.8501 100.471 34.8501C99.3839 34.8501 98.3413 35.287 97.5726 36.0645Z" fill="#0250C9"/>
<path d="M97.5726 66.6644L87.3916 76.962C87.2739 77.0724 87.1193 77.1337 86.9589 77.1337C86.7984 77.1337 86.6439 77.0724 86.5262 76.962L75.8997 66.214C75.0823 65.3854 74.1113 64.7279 73.0423 64.2794C71.9734 63.8309 70.8274 63.6 69.6701 63.6C68.5129 63.6 67.367 63.8309 66.298 64.2794C65.2291 64.7279 64.2581 65.3854 63.4407 66.214L52.9351 76.8333C52.8793 76.8915 52.8126 76.9377 52.7388 76.9693C52.665 77.0009 52.5857 77.0172 52.5056 77.0172C52.4254 77.0172 52.3462 77.0009 52.2724 76.9693C52.1986 76.9377 52.1318 76.8915 52.0761 76.8333L41.895 66.5358C40.24 64.8702 38.0002 63.9351 35.6655 63.9351C33.3308 63.9351 31.091 64.8702 29.4359 66.5358L16.2006 79.9225C15.82 80.3075 15.518 80.7645 15.312 81.2675C15.106 81.7705 15 82.3097 15 82.8541C15 83.3986 15.106 83.9377 15.312 84.4407C15.518 84.9437 15.82 85.4007 16.2006 85.7857C16.5813 86.1707 17.0331 86.4761 17.5304 86.6845C18.0277 86.8928 18.5607 87 19.099 87C19.6373 87 20.1703 86.8928 20.6676 86.6845C21.165 86.4761 21.6168 86.1707 21.9974 85.7857L35.2328 72.3989C35.2823 72.3298 35.3474 72.2735 35.4226 72.2347C35.4978 72.1959 35.5811 72.1756 35.6655 72.1756C35.7499 72.1756 35.8332 72.1959 35.9084 72.2347C35.9836 72.2735 36.0487 72.3298 36.0982 72.3989L46.2793 82.6965C47.9316 84.3648 50.1708 85.3018 52.5056 85.3018C54.8403 85.3018 57.0796 84.3648 58.7319 82.6965L69.2375 72.0771C69.3552 71.9667 69.5097 71.9054 69.6701 71.9054C69.8306 71.9054 69.9852 71.9667 70.1029 72.0771L80.7293 82.8252C82.3827 84.4939 84.6231 85.4311 86.9589 85.4311C89.2946 85.4311 91.535 84.4939 93.1884 82.8252L103.369 72.5276C104.138 71.7501 104.57 70.6956 104.57 69.5961C104.57 68.4965 104.138 67.442 103.369 66.6644C102.601 65.8869 101.558 65.4502 100.471 65.4502C99.3839 65.4502 98.3413 65.8869 97.5726 66.6644Z" fill="#0250C9"/>
</svg>
