<svg width="120" height="120" viewBox="0 0 120 120" fill="none" xmlns="http://www.w3.org/2000/svg">
<path d="M78.6373 28.0167C74.8128 28.0194 71.0674 29.1257 67.8361 31.2072C64.6047 33.2887 62.02 36.26 60.3819 39.7762C59.0774 36.9586 57.159 34.4804 54.7725 32.5298C52.3859 30.5792 49.594 29.2074 46.6085 28.5186C43.623 27.8298 40.5226 27.842 37.5425 28.5544C34.5623 29.2667 31.7809 30.6605 29.4093 32.6299C27.0377 34.5993 25.1383 37.0925 23.8553 39.9203C22.5723 42.7481 21.9394 45.8361 22.0046 48.95C22.0698 52.0638 22.8314 55.1216 24.2317 57.8912C25.632 60.6608 27.634 63.0695 30.0859 64.9343C30.4569 65.2173 30.8791 65.4232 31.3283 65.5402C31.7775 65.6572 32.245 65.683 32.704 65.6162C33.1631 65.5494 33.6047 65.3913 34.0036 65.1509C34.4026 64.9105 34.7511 64.5924 35.0293 64.215C35.3075 63.8375 35.5098 63.408 35.6249 62.951C35.7399 62.4939 35.7653 62.0183 35.6996 61.5513C35.634 61.0843 35.4785 60.635 35.2422 60.2291C35.0059 59.8232 34.6933 59.4686 34.3223 59.1856C32.1253 57.5087 30.5023 55.1713 29.6829 52.5042C28.8635 49.8371 28.8892 46.9754 29.7565 44.324C30.6238 41.6726 32.2886 39.3659 34.5154 37.7302C36.7423 36.0945 39.4183 35.2127 42.1649 35.2096C43.894 35.2176 45.6046 35.5724 47.1989 36.2537C48.7931 36.9351 50.2396 37.9296 51.4557 39.1803C52.6718 40.4309 53.6335 41.9133 54.2859 43.5426C54.9383 45.1718 55.2685 46.9159 55.2577 48.6752L56.869 88.6092C56.9192 89.5255 57.3124 90.3874 57.9677 91.018C58.6231 91.6486 59.4909 92 60.3929 92C61.2949 92 62.1627 91.6486 62.8181 91.018C63.4734 90.3874 63.8666 89.5255 63.9168 88.6092L65.561 48.5023C65.5603 46.2305 66.1307 43.9963 67.2179 42.0121C68.3052 40.0278 69.8732 38.3594 71.7728 37.1655C73.6725 35.9715 75.8408 35.2917 78.0715 35.1907C80.3022 35.0897 82.5212 35.5707 84.5177 36.5882C86.5141 37.6056 88.2216 39.1257 89.4779 41.0038C90.7342 42.8819 91.4974 45.0557 91.6952 47.3185C91.8929 49.5814 91.5186 51.8581 90.6077 53.9322C89.6967 56.0064 88.2796 57.809 86.4909 59.1689C86.1199 59.4515 85.8072 59.8057 85.5707 60.2113C85.3343 60.6169 85.1787 61.0659 85.1128 61.5326C85.0469 61.9994 85.072 62.4748 85.1866 62.9317C85.3013 63.3886 85.5033 63.818 85.7811 64.1955C86.0589 64.5729 86.4071 64.891 86.8057 65.1316C87.2044 65.3722 87.6457 65.5305 88.1045 65.5975C88.5633 65.6646 89.0305 65.6391 89.4796 65.5224C89.9287 65.4057 90.3508 65.2002 90.7218 64.9175C94.1085 62.3392 96.6119 58.7419 97.8772 54.6354C99.1426 50.5289 99.1058 46.1214 97.772 42.0374C96.4381 37.9534 93.875 34.4 90.4457 31.8806C87.0163 29.3611 82.8947 28.0035 78.6648 28L78.6373 28.0167Z" fill="#0250C9"/>
</svg>
