<svg width="120" height="120" viewBox="0 0 120 120" fill="none" xmlns="http://www.w3.org/2000/svg">
<path d="M28.6544 82.9279L28.7494 83.0182L28.9663 83.1642L29.2511 83.3589C37.9855 88.9309 48.0512 91.9213 58.3379 92C69.6268 92 83.0311 88.1626 96.4965 75.4616C97.3488 74.6578 97.8549 73.5397 97.9032 72.3533C97.9515 71.1669 97.5382 70.0094 96.7541 69.1355C95.9701 68.2616 94.8796 67.7428 93.7225 67.6932C92.5654 67.6437 91.4366 68.0675 90.5842 68.8713C74.6644 83.8803 59.2125 84.5407 48.4592 82.0797C50.9825 79.8539 52.7666 76.8773 53.5636 73.5637C54.3605 70.2501 54.1307 66.7642 52.906 63.5908C51.6813 60.4173 49.5227 57.714 46.7301 55.8566C43.9376 53.9993 40.65 53.0803 37.3245 53.2274C33.999 53.3744 30.8009 54.5803 28.1747 56.6773C25.5486 58.7743 23.6249 61.6582 22.6713 64.928C21.7177 68.1978 21.7814 71.691 22.8537 74.9219C23.926 78.1529 25.9536 80.9609 28.6544 82.9557V82.9279ZM38.011 62.1698C38.9855 62.1393 39.9561 62.3098 40.8651 62.6711C41.7742 63.0324 42.6032 63.5772 43.3031 64.2732C44.0029 64.9692 44.5593 65.8022 44.9393 66.7228C45.3192 67.6434 45.5151 68.6329 45.5151 69.6325C45.5151 70.6322 45.3192 71.6217 44.9393 72.5423C44.5593 73.4629 44.0029 74.2959 43.3031 74.9919C42.6032 75.6879 41.7742 76.2327 40.8651 76.594C39.9561 76.9553 38.9855 77.1258 38.011 77.0953C36.5792 77.0978 35.1793 76.662 33.9904 75.844L33.9022 75.7814C32.6214 74.8811 31.6552 73.5842 31.1448 72.0803C30.6345 70.5765 30.6069 68.9447 31.066 67.4236C31.5252 65.9026 32.447 64.5721 33.6966 63.6267C34.9462 62.6814 36.458 62.1709 38.011 62.1698Z" fill="#0250C9"/>
<path d="M26.3633 52.314C27.4587 52.3161 28.5145 51.8947 29.3194 51.1339C45.2385 36.1392 60.6899 35.4797 71.4428 37.9441C68.9175 40.1667 67.1314 43.1397 66.3327 46.4498C65.5341 49.7599 65.7627 53.2425 66.9867 56.4135C68.2107 59.5844 70.3693 62.286 73.1623 64.1426C75.9553 65.9992 79.2438 66.9186 82.5708 66.7729C85.8977 66.6272 89.0977 65.4236 91.7256 63.3295C94.3536 61.2354 96.2789 58.3549 97.2339 55.0886C98.189 51.8222 98.1262 48.3323 97.0544 45.1041C95.9826 41.876 93.9551 39.07 91.2536 37.0764C91.2231 37.0405 91.189 37.0079 91.1519 36.9792L90.9282 36.8264L90.7045 36.6668C86.5959 33.89 55.1643 14.619 23.4073 44.5182C22.7613 45.1286 22.31 45.9241 22.1122 46.8011C21.9144 47.678 21.9793 48.5956 22.2984 49.4343C22.6175 50.2729 23.176 50.9936 23.9012 51.5023C24.6263 52.0111 25.4843 52.2843 26.3633 52.2863V52.314ZM81.8906 57.826C80.9162 57.8564 79.9456 57.6862 79.0366 57.3254C78.1276 56.9646 77.2986 56.4206 76.5987 55.7255C75.8989 55.0305 75.3426 54.1987 74.9626 53.2794C74.5827 52.3601 74.3868 51.372 74.3868 50.3738C74.3868 49.3755 74.5827 48.3874 74.9626 47.4681C75.3426 46.5488 75.8989 45.717 76.5987 45.0219C77.2986 44.3269 78.1276 43.7829 79.0366 43.4221C79.9456 43.0613 80.9162 42.8911 81.8906 42.9215C83.3246 42.9181 84.7269 43.3532 85.9179 44.1711L85.9992 44.2266C87.283 45.1246 88.2521 46.4201 88.7643 47.9231C89.2765 49.4261 89.305 51.0577 88.8456 52.5785C88.3861 54.0993 87.4629 55.4294 86.2113 56.3738C84.9596 57.3181 83.4454 57.8271 81.8906 57.826Z" fill="#0250C9"/>
</svg>
