<svg width="120" height="120" viewBox="0 0 120 120" fill="none" xmlns="http://www.w3.org/2000/svg">
<path d="M88.9775 52.4948C86.3026 52.498 83.6793 53.2327 81.3911 54.6197C79.1029 56.0067 77.2367 57.9932 75.9941 60.3646C74.2769 55.4216 73.4013 49.8017 73.4013 43.3539C73.396 39.9614 72.2684 36.6663 70.1945 33.9833C68.1206 31.3004 65.2174 29.3808 61.9384 28.5245C58.6595 27.6683 55.1896 27.9236 52.0709 29.2506C48.9522 30.5775 46.3605 32.9014 44.7006 35.859C43.046 32.8936 40.455 30.5619 37.334 29.2295C34.2131 27.8971 30.7386 27.6394 27.4556 28.4967C24.1726 29.354 21.2666 31.2779 19.1934 33.9667C17.1202 36.6555 15.997 39.9572 16 43.3539C16 44.1857 16.3301 44.9834 16.9176 45.5715C17.5051 46.1597 18.3019 46.4901 19.1328 46.4901C19.9636 46.4901 20.7604 46.1597 21.3479 45.5715C21.9354 44.9834 22.2655 44.1857 22.2655 43.3539C22.2829 40.9489 23.2539 38.6494 24.9649 36.9612C26.6759 35.2729 28.9866 34.3343 31.3889 34.3518C33.7912 34.3692 36.0881 35.3413 37.7744 37.0541C39.4608 38.767 40.3984 41.0804 40.381 43.4854L41.5679 72.3204C41.6125 73.122 41.9621 73.876 42.5447 74.4277C43.1273 74.9793 43.8987 75.2867 44.7006 75.2867C45.5026 75.2867 46.2741 74.9793 46.8567 74.4277C47.4393 73.876 47.7888 73.122 47.8334 72.3204L49.0203 43.3539C49.0203 40.9489 49.9746 38.6425 51.6733 36.9419C53.3719 35.2414 55.6758 34.286 58.0781 34.286C60.4803 34.286 62.7842 35.2414 64.4828 36.9419C66.1815 38.6425 67.1358 40.9489 67.1358 43.3539C67.1358 54.8957 69.7675 64.6113 74.9579 72.2571C72.8016 76.5231 69.5257 80.1208 65.4819 82.6642C61.2136 85.1935 56.2149 86.1995 51.3018 85.518C50.8882 85.4469 50.4645 85.4597 50.0559 85.5556C49.6473 85.6516 49.2622 85.8288 48.9233 86.0766C48.5844 86.3245 48.2988 86.638 48.0833 86.9986C47.8678 87.3591 47.7268 87.7593 47.6688 88.1754C47.6108 88.5915 47.6369 89.015 47.7455 89.4208C47.8541 89.8266 48.0431 90.2065 48.3012 90.5378C48.5593 90.8691 48.8813 91.1451 49.248 91.3494C49.6147 91.5537 50.0187 91.6822 50.4359 91.7272C51.725 91.9111 53.0255 92.0023 54.3275 92C59.3844 92.0008 64.3481 90.6381 68.6973 88.0552C72.8553 85.4854 76.3725 81.9992 78.9809 77.8624C80.7259 79.4972 82.8438 80.68 85.15 81.3077C87.4562 81.9354 89.8807 81.989 92.2123 81.4639C94.5439 80.9388 96.7119 79.8508 98.5274 78.2948C100.343 76.7388 101.751 74.762 102.628 72.5366C103.506 70.3111 103.827 67.9046 103.562 65.5267C103.298 63.1488 102.457 60.8716 101.113 58.8935C99.7682 56.9155 97.9609 55.2966 95.8484 54.178C93.7358 53.0593 91.382 52.4748 88.9921 52.4753L88.9775 52.4948ZM88.9775 75.5881C87.4213 75.5827 85.8973 75.144 84.576 74.3209C83.2547 73.4978 82.1882 72.3229 81.4959 70.9276C81.4168 70.6742 81.3056 70.432 81.1651 70.2069C80.7802 69.2433 80.5805 68.2155 80.5765 67.1777C80.5765 65.5143 81.0692 63.8883 81.9923 62.5052C82.9154 61.1221 84.2275 60.0441 85.7626 59.4075C87.2976 58.771 88.9868 58.6044 90.6164 58.9289C92.2461 59.2534 93.743 60.0545 94.9179 61.2307C96.0928 62.4069 96.8929 63.9055 97.2171 65.537C97.5412 67.1684 97.3749 68.8595 96.739 70.3963C96.1032 71.9331 95.0264 73.2466 93.6448 74.1707C92.2633 75.0949 90.6391 75.5881 88.9775 75.5881Z" fill="#0250C9"/>
</svg>
