<svg width="120" height="120" viewBox="0 0 120 120" fill="none" xmlns="http://www.w3.org/2000/svg">
<path d="M103.136 77.6313L92.7619 69.7642C92.2251 69.3571 91.5852 69.1081 90.9145 69.0452C90.2437 68.9823 89.5688 69.1081 88.9657 69.4083C88.3626 69.7086 87.8553 70.1714 87.5009 70.7446C87.1465 71.3177 86.9591 71.9786 86.9599 72.6525V76.3107H83.2137C82.4959 76.0227 81.8816 75.525 81.4508 74.8825C81.02 74.2399 80.7926 73.4824 80.7985 72.7087V41.6899C80.8032 38.9329 79.9742 36.2388 78.4205 33.9617C76.8668 31.6847 74.661 29.931 72.0929 28.9311C69.5248 27.9312 66.7144 27.7318 64.031 28.3591C61.3475 28.9865 58.9165 30.4112 57.0571 32.4461C55.7917 31.0569 54.2525 29.9447 52.5366 29.1796C50.8206 28.4145 48.9649 28.013 47.0863 28.0003C45.2077 27.9876 43.3467 28.3641 41.6206 29.106C39.8945 29.8479 38.3405 30.9392 37.0564 32.3112C35.9071 30.9716 34.4843 29.8939 32.8839 29.1504C31.2834 28.407 29.5423 28.0151 27.7778 28.0012C20.7346 28.0012 15 34.1431 15 41.6899C15.0369 42.6258 15.4344 43.511 16.1092 44.1601C16.784 44.8092 17.6838 45.1717 18.6199 45.1717C19.5561 45.1717 20.4558 44.8092 21.1306 44.1601C21.8054 43.511 22.203 42.6258 22.2398 41.6899C22.2398 38.1329 24.7223 35.2445 27.7778 35.2445C30.8332 35.2445 33.3158 38.1329 33.3158 41.6899V77.0918C33.3158 78.0516 33.6969 78.9721 34.3752 79.6507C35.0536 80.3294 35.9736 80.7107 36.9329 80.7107C37.8922 80.7107 38.8122 80.3294 39.4905 79.6507C40.1688 78.9721 40.5499 78.0516 40.5499 77.0918V41.6899C40.5499 39.976 41.2304 38.3323 42.4418 37.1204C43.6531 35.9085 45.296 35.2277 47.009 35.2277C48.7221 35.2277 50.365 35.9085 51.5764 37.1204C52.7877 38.3323 53.4681 39.976 53.4681 41.6899V77.0918C53.4681 78.0516 53.8492 78.9721 54.5275 79.6507C55.2059 80.3294 56.1259 80.7107 57.0853 80.7107C58.0446 80.7107 58.9646 80.3294 59.6429 79.6507C60.3212 78.9721 60.7023 78.0516 60.7023 77.0918V41.6899C60.7023 39.976 61.3828 38.3323 62.5941 37.1204C63.8055 35.9085 65.4483 35.2277 67.1614 35.2277C68.8745 35.2277 70.5174 35.9085 71.7287 37.1204C72.9401 38.3323 73.6205 39.976 73.6205 41.6899V72.7087C73.5977 75.1664 74.4002 77.5606 75.8992 79.5077C77.3983 81.4548 79.5073 82.8421 81.8882 83.4473C82.1735 83.5145 82.4656 83.5484 82.7587 83.5485H86.9937V88.3811C86.9929 89.054 87.1803 89.7137 87.5346 90.2857C87.889 90.8577 88.3961 91.3191 88.9988 91.6178C89.4986 91.8702 90.0509 92.0012 90.6107 92C91.3999 92.0004 92.1674 91.7418 92.7956 91.2638L103.17 83.3967C103.614 83.0586 103.975 82.6222 104.223 82.1217C104.471 81.6211 104.6 81.0699 104.6 80.5112C104.6 79.9524 104.471 79.4013 104.223 78.9007C103.975 78.4001 103.614 77.9638 103.17 77.6257L103.136 77.6313Z" fill="#0250C9"/>
</svg>
