<svg width="120" height="120" viewBox="0 0 120 120" fill="none" xmlns="http://www.w3.org/2000/svg">
<path d="M32.0003 67.2216C31.9971 68.9492 32.3693 70.6571 33.0915 72.229C33.8137 73.8009 34.8689 75.1999 36.1853 76.3305C37.5017 77.4612 39.0483 78.2971 40.7197 78.781C42.3911 79.265 44.148 79.3858 45.8707 79.1351C47.5934 78.8845 49.2414 78.2683 50.7023 77.3285C52.1633 76.3888 53.4029 75.1476 54.3367 73.6896C55.2705 72.2315 55.8765 70.5908 56.1134 68.8793C56.3504 67.1679 56.2127 65.4258 55.7097 63.7719V63.735C55.3134 62.4529 54.7033 61.2457 53.9047 60.1638C52.4139 55.9904 52.137 49.1597 52.3713 45.0866C52.3713 45.0232 52.3713 44.9545 52.3713 44.8911C52.301 43.4901 52.5193 42.0895 53.013 40.775C53.5067 39.4605 54.2654 38.2597 55.2426 37.246C56.2199 36.2323 57.3953 35.4269 58.6969 34.8792C59.9985 34.3315 61.3991 34.0529 62.8129 34.0605C64.2267 34.068 65.6241 34.3616 66.9197 34.9232C68.2153 35.4848 69.3819 36.3026 70.3481 37.3267C71.3143 38.3508 72.0599 39.5596 72.5393 40.8793C73.0187 42.199 73.2219 43.6019 73.1363 45.0021C73.2286 48.1546 72.9028 51.3055 72.1673 54.3738C71.4964 57.1684 69.9896 59.2076 68.2485 61.569C67.1254 63.0404 66.089 64.575 65.1444 66.1651C63.43 69.1393 62.5515 72.8003 62.4503 77.3541C62.3492 81.9079 63.8027 86.0021 66.4329 88.6752C67.5014 89.7528 68.78 90.6033 70.1906 91.1746C71.6013 91.7459 73.1144 92.0261 74.6377 91.9981C82.1824 91.9981 86.8572 84.6021 86.8572 77.7345C86.8222 76.8547 86.4454 76.0224 85.8057 75.4122C85.166 74.802 84.313 74.4612 83.4256 74.4612C82.5382 74.4612 81.6852 74.802 81.0455 75.4122C80.4058 76.0224 80.029 76.8547 79.9941 77.7345C79.9941 80.7774 78.0879 85.1779 74.6377 85.1779C74.028 85.2056 73.4192 85.1062 72.8506 84.886C72.282 84.6657 71.7663 84.3297 71.3367 83.8995C70.0056 82.5524 69.2442 80.154 69.3081 77.4862C69.3826 74.0946 69.9683 71.4902 71.1024 69.5249C71.9115 68.1575 72.8004 66.838 73.7646 65.5734C75.7612 62.8686 77.8217 60.0687 78.8174 55.9375C79.6914 52.3166 80.0799 48.5971 79.9728 44.8753C79.9077 40.3862 78.0681 36.102 74.8502 32.9457C71.6324 29.7893 67.2938 28.0132 62.7689 28.0001C58.244 27.9869 53.895 29.7377 50.6586 32.8753C47.4221 36.0129 45.5573 40.2863 45.4656 44.7749C45.2914 48.3008 45.4143 51.835 45.833 55.3406C44.1134 55.0807 42.3575 55.1941 40.6864 55.673C39.0153 56.1518 37.4689 56.9848 36.1538 58.1144C34.8387 59.2439 33.7862 60.6432 33.0692 62.2155C32.3521 63.7879 31.9874 65.4959 32.0003 67.2216ZM49.2033 65.996C49.4591 67.0479 49.378 68.1527 48.9713 69.1567C48.5647 70.1606 47.8527 71.0139 46.9345 71.5977C46.0163 72.1814 44.9375 72.4667 43.8483 72.4137C42.7591 72.3607 41.7136 71.9722 40.8573 71.3021C40.0011 70.632 39.3766 69.7138 39.0709 68.6751C38.7652 67.6365 38.7934 66.5291 39.1516 65.5071C39.5098 64.4852 40.1802 63.5994 41.0695 62.9731C41.9588 62.3468 43.0227 62.0111 44.1132 62.0128C44.8373 62.0136 45.5532 62.1644 46.2151 62.4555C46.8771 62.7466 47.4705 63.1716 47.9574 63.7033C48.3114 64.5062 48.7354 65.2769 49.2246 66.0066L49.2033 65.996Z" fill="#0250C9"/>
</svg>
