<svg width="120" height="120" viewBox="0 0 120 120" fill="none" xmlns="http://www.w3.org/2000/svg">
<path d="M101.111 78H18.889C17.8437 78.0458 16.8549 78.54 16.13 79.3789C15.405 80.2178 15 81.3363 15 82.5C15 83.6637 15.405 84.7822 16.13 85.6211C16.8549 86.46 17.8437 86.9542 18.889 87H101.111C102.156 86.9542 103.145 86.46 103.87 85.6211C104.595 84.7822 105 83.6637 105 82.5C105 81.3363 104.595 80.2178 103.87 79.3789C103.145 78.54 102.156 78.0458 101.111 78Z" fill="#0250C9"/>
<path d="M101.098 60.9089H85.5287V58.1282C85.4236 51.4278 82.6878 45.0374 77.9116 40.3362C73.1355 35.635 66.7021 33 60 33C53.2978 33 46.8645 35.635 42.0884 40.3362C37.3122 45.0374 34.5764 51.4278 34.4713 58.1282V60.9089H18.8898C17.8443 60.9501 16.8553 61.3943 16.1302 62.1485C15.405 62.9027 15 63.9083 15 64.9545C15 66.0007 15.405 67.0062 16.1302 67.7604C16.8553 68.5146 17.8443 68.9588 18.8898 69H38.5205C39.5933 68.9983 40.6216 68.571 41.3796 67.812C42.1376 67.0529 42.5634 66.024 42.5634 64.9513V58.1282C42.6501 53.5617 44.5252 49.2113 47.7858 46.0125C51.0463 42.8136 55.432 41.0216 60 41.0216C64.568 41.0216 68.9536 42.8136 72.2142 46.0125C75.4747 49.2113 77.3499 53.5617 77.4366 58.1282V64.9513C77.4366 66.0251 77.8632 67.0549 78.6226 67.8142C79.3819 68.5734 80.4119 69 81.4858 69H101.11C102.156 68.9588 103.145 68.5146 103.87 67.7604C104.595 67.0062 105 66.0007 105 64.9545C105 63.9083 104.595 62.9027 103.87 62.1485C103.145 61.3943 102.156 60.9501 101.11 60.9089H101.098Z" fill="#0250C9"/>
</svg>
