<svg width="120" height="120" viewBox="0 0 120 120" fill="none" xmlns="http://www.w3.org/2000/svg">
<path d="M89.6218 57.5055H74.4824C75.212 42.534 84.3807 35.4329 84.8185 35.1093C85.657 34.4932 86.2175 33.5677 86.3765 32.5366C86.5356 31.5054 86.2803 30.4531 85.6667 29.611C85.0531 28.7689 84.1315 28.2061 83.1048 28.0464C82.078 27.8867 81.0301 28.1431 80.1916 28.7592C79.6505 29.1561 67.4235 38.3637 66.6574 57.5055H52.9225C52.1442 38.3637 39.9294 29.1561 39.3883 28.7592C38.5482 28.1455 37.4996 27.8921 36.4734 28.0547C35.4472 28.2173 34.5274 28.7826 33.9163 29.6263C33.3051 30.47 33.0527 31.5229 33.2146 32.5535C33.3765 33.584 33.9394 34.5078 34.7796 35.1216C34.8769 35.1948 44.3435 42.3264 45.1157 57.5055H29.9155C28.8771 57.5055 27.8811 57.9198 27.1468 58.6572C26.4125 59.3946 26 60.3948 26 61.4377C26 62.4806 26.4125 63.4807 27.1468 64.2181C27.8811 64.9556 28.8771 65.3699 29.9155 65.3699H44.7023C42.7141 77.9662 34.9741 84.646 34.6093 84.9513C34.1932 85.2728 33.8458 85.675 33.5876 86.1341C33.3294 86.5932 33.1658 87.0998 33.1064 87.6236C33.0471 88.1475 33.0933 88.6779 33.2423 89.1835C33.3912 89.689 33.6399 90.1594 33.9735 90.5665C34.3072 90.9736 34.7189 91.3092 35.1842 91.5533C35.6496 91.7974 36.159 91.9449 36.6823 91.9873C37.2056 92.0296 37.7321 91.9659 38.2304 91.7998C38.7287 91.6337 39.1886 91.3687 39.5828 91.0205C40.0753 90.6175 50.4418 81.8129 52.5942 65.376H67.01C69.1562 81.819 79.5288 90.6236 80.0152 91.0205C80.4114 91.3546 80.8695 91.6065 81.3631 91.7618C81.8568 91.9171 82.3762 91.9726 82.8913 91.9251C83.4065 91.8776 83.9071 91.7281 84.3643 91.4852C84.8216 91.2423 85.2265 90.9108 85.5554 90.5099C85.8844 90.1089 86.131 89.6466 86.2809 89.1494C86.4309 88.6522 86.4812 88.1301 86.4291 87.6132C86.3769 87.0964 86.2234 86.595 85.9772 86.1381C85.731 85.6812 85.3971 85.2779 84.9948 84.9513C84.9036 84.872 76.9326 78.1311 74.9019 65.3699H89.6399C90.6784 65.3699 91.6744 64.9556 92.4087 64.2181C93.143 63.4807 93.5555 62.4806 93.5555 61.4377C93.5555 60.3948 93.143 59.3946 92.4087 58.6572C91.6744 57.9198 90.6784 57.5055 89.6399 57.5055H89.6218Z" fill="#0250C9"/>
</svg>
