<svg width="120" height="120" viewBox="0 0 120 120" fill="none" xmlns="http://www.w3.org/2000/svg">
<path d="M88.4274 28.0028H66.1334C65.6528 27.9839 65.1733 28.0619 64.7236 28.2322C64.274 28.4025 63.8635 28.6615 63.5168 28.9937C63.17 29.3259 62.8942 29.7244 62.7057 30.1654C62.5173 30.6064 62.4202 31.0808 62.4202 31.5601C62.4202 32.0394 62.5173 32.5138 62.7057 32.9548C62.8942 33.3958 63.17 33.7943 63.5168 34.1265C63.8635 34.4587 64.274 34.7177 64.7236 34.888C65.1733 35.0582 65.6528 35.1363 66.1334 35.1174H80.0415L56.6564 58.4209L46.8027 48.6016C46.1336 47.9348 45.226 47.5603 44.2797 47.5603C43.3334 47.5603 42.4259 47.9348 41.7568 48.6016C41.0877 49.2684 40.7117 50.1728 40.7117 51.1158C40.7117 52.0588 41.0877 52.9631 41.7568 53.6299L51.6104 63.4492L29.045 85.9303C28.7137 86.2604 28.4509 86.6524 28.2716 87.0838C28.0923 87.5151 28 87.9775 28 88.4444C28 88.9114 28.0923 89.3737 28.2716 89.8051C28.4509 90.2364 28.7137 90.6284 29.045 90.9585C29.3764 91.2887 29.7697 91.5507 30.2026 91.7293C30.6355 91.908 31.0994 92 31.568 92C32.0366 92 32.5005 91.908 32.9334 91.7293C33.3663 91.5507 33.7596 91.2887 34.091 90.9585L56.6564 68.472L65.2804 77.0714C65.9495 77.7382 66.8571 78.1128 67.8034 78.1128C68.7497 78.1128 69.6572 77.7382 70.3263 77.0714C70.9955 76.4047 71.3714 75.5003 71.3714 74.5573C71.3714 73.6143 70.9955 72.71 70.3263 72.0432L61.6968 63.4492L84.8603 40.3665V54.6676C84.8967 55.5868 85.2887 56.4564 85.9542 57.0939C86.6197 57.7315 87.507 58.0876 88.4301 58.0876C89.3533 58.0876 90.2406 57.7315 90.9061 57.0939C91.5716 56.4564 91.9636 55.5868 92 54.6676V31.5794C92.0022 31.1105 91.9113 30.6458 91.7328 30.2119C91.5542 29.7781 91.2914 29.3837 90.9595 29.0514C90.6275 28.719 90.2329 28.4552 89.7984 28.2753C89.3639 28.0954 88.8979 28.0028 88.4274 28.0028Z" fill="#0250C9"/>
</svg>
