<svg width="120" height="120" viewBox="0 0 120 120" fill="none" xmlns="http://www.w3.org/2000/svg">
<path d="M29.2581 35.0165C29.366 35.0165 31.9555 34.4764 35.9691 36.4101C37.771 37.2851 39.3247 39.2836 41.6714 42.3084C43.4408 44.5824 45.6958 47.4937 48.8733 50.9506C44.7088 53.3949 41.4623 57.1422 39.6339 61.6153C37.8055 66.0885 37.4965 71.0395 38.7546 75.7058C40.0127 80.372 42.768 84.4948 46.5963 87.4391C50.4245 90.3834 55.1134 91.9859 59.9407 91.9999C64.768 92.0139 69.466 90.4385 73.3112 87.5165C77.1565 84.5944 79.9356 80.4877 81.2206 75.8288C82.5057 71.1699 82.2253 66.2172 80.4228 61.7335C78.6203 57.2498 75.3955 53.4838 71.2452 51.0154C74.455 47.5423 76.7262 44.6148 78.5065 42.3246C80.8532 39.2998 82.4068 37.3013 84.2033 36.4317C88.1414 34.525 90.6769 34.9895 90.9089 35.0327C91.351 35.1459 91.811 35.1707 92.2626 35.1059C92.7143 35.041 93.1488 34.8877 93.5413 34.6548C93.9338 34.4218 94.2766 34.1137 94.5501 33.748C94.8237 33.3824 95.0227 32.9664 95.1357 32.5238C95.2487 32.0812 95.2735 31.6206 95.2087 31.1684C95.1439 30.7162 94.9908 30.2812 94.7581 29.8882C94.5254 29.4952 94.2177 29.152 93.8525 28.8781C93.4874 28.6042 93.0719 28.405 92.6298 28.2918C92.1281 28.1568 87.5588 27.0765 81.1822 30.1661C77.9131 31.7433 75.8577 34.39 73.02 38.0575C70.2991 41.655 67.3607 45.0823 64.2213 48.3201C61.4855 47.78 58.6707 47.78 55.935 48.3201C52.8033 45.0947 49.8721 41.68 47.1578 38.0953C44.3148 34.4278 42.2594 31.7811 38.9956 30.2039C32.6136 27.1143 28.0443 28.1946 27.548 28.3296C26.676 28.5633 25.9309 29.1311 25.4736 29.9104C25.0163 30.6896 24.8836 31.6177 25.1042 32.4941C25.3397 33.3688 25.9027 34.1189 26.6763 34.5887C27.4499 35.0585 28.3746 35.2117 29.2581 35.0165ZM75.0646 69.9094C75.0646 72.8921 74.1813 75.8078 72.5262 78.2878C70.8712 80.7678 68.5188 82.7007 65.7666 83.8421C63.0144 84.9835 59.9859 85.2822 57.0641 84.7003C54.1424 84.1184 51.4586 82.6821 49.3521 80.573C47.2456 78.464 45.8111 75.7768 45.2299 72.8515C44.6488 69.9261 44.9471 66.8939 46.0871 64.1383C47.2271 61.3827 49.1576 59.0274 51.6346 57.3703C54.1115 55.7132 57.0236 54.8288 60.0026 54.8288C63.9964 54.8316 67.8258 56.4214 70.6499 59.2489C73.474 62.0765 75.0618 65.9106 75.0646 69.9094Z" fill="#0250C9"/>
</svg>
