<svg width="120" height="120" viewBox="0 0 120 120" fill="none" xmlns="http://www.w3.org/2000/svg">
<path d="M23.4614 44.8104C24.3837 44.8104 25.2683 44.4407 25.9205 43.7826C26.5726 43.1246 26.939 42.2321 26.939 41.3014C26.939 37.8524 29.3259 35.0463 32.2635 35.0463C35.2011 35.0463 37.5879 37.8524 37.5879 41.3014V75.6282C37.6233 76.5357 38.0055 77.394 38.6543 78.0234C39.3031 78.6528 40.1682 79.0043 41.0682 79.0043C41.9682 79.0043 42.8333 78.6528 43.4821 78.0234C44.1309 77.394 44.5131 76.5357 44.5485 75.6282V41.3014C44.5485 39.6439 45.2011 38.0543 46.3627 36.8822C47.5242 35.7102 49.0997 35.0518 50.7424 35.0518C52.3851 35.0518 53.9605 35.7102 55.1221 36.8822C56.2836 38.0543 56.9362 39.6439 56.9362 41.3014V75.6282C56.9716 76.5357 57.3538 77.394 58.0026 78.0234C58.6514 78.6528 59.5165 79.0043 60.4165 79.0043C61.3165 79.0043 62.1816 78.6528 62.8304 78.0234C63.4792 77.394 63.8614 76.5357 63.8968 75.6282V41.3014C63.8968 39.6439 64.5494 38.0543 65.711 36.8822C66.8725 35.7102 68.448 35.0518 70.0907 35.0518C71.7334 35.0518 73.3088 35.7102 74.4704 36.8822C75.632 38.0543 76.2845 39.6439 76.2845 41.3014V75.6282C76.3094 76.6513 76.4692 77.6664 76.7597 78.6468C73.7716 81.1807 70.5636 83.4383 67.1746 85.3923C66.3605 85.8302 65.752 86.5765 65.4831 87.467C65.2142 88.3575 65.307 89.3193 65.741 90.1409C66.1749 90.9624 66.9145 91.5763 67.7971 91.8476C68.6797 92.1189 69.6329 92.0254 70.4471 91.5875C73.9772 89.5961 77.3257 87.2932 80.4533 84.7058C82.9157 87.0433 86.6742 88.8903 92.2416 89.2173H92.4414C93.3359 89.199 94.1892 88.8341 94.8243 88.1982C95.4594 87.5623 95.8276 86.7042 95.8526 85.8018C95.8776 84.8994 95.5574 84.0218 94.9585 83.3511C94.3596 82.6804 93.5279 82.268 92.6358 82.1993C89.2284 82.0032 87.0684 81.1096 85.6806 80.0199C90.0384 75.699 94.3692 70.2395 97.215 63.7501C102.539 51.5995 97.6578 45.0501 95.3088 42.7944C93.6722 41.2785 91.7214 40.1497 89.5982 39.4899C87.475 38.8301 85.2328 38.6561 83.0345 38.9803C82.6152 36.5408 81.5263 34.2689 79.8916 32.4225C78.2569 30.576 76.1419 29.229 73.7867 28.5345C71.4314 27.8399 68.9304 27.8256 66.5675 28.4932C64.2046 29.1608 62.0745 30.4835 60.4192 32.3111C59.2025 30.964 57.7228 29.8857 56.0729 29.1438C54.4231 28.4019 52.639 28.0126 50.8328 28.0003C49.0266 27.988 47.2375 28.353 45.5779 29.0724C43.9183 29.7918 42.4243 30.85 41.1897 32.1803C40.084 30.8884 38.7176 29.8497 37.1819 29.1337C35.6462 28.4177 33.9767 28.0408 32.2851 28.0284C25.5134 28.0284 20 33.9838 20 41.3014C20 42.2292 20.3642 43.1193 21.0128 43.7769C21.6615 44.4345 22.5419 44.8061 23.4614 44.8104ZM90.5136 47.8943C93.2622 50.5315 93.381 55.1575 90.8538 60.9222C88.9326 65.1311 86.3648 69.0074 83.2451 72.408V46.0908C85.8534 45.5024 88.683 46.1344 90.5136 47.8943Z" fill="#0250C9"/>
</svg>
